#N canvas -8 0 1280 881 12;
#X floatatom 34 97 8 0 0 0 - - -;
#X obj 34 578 s \$0-pitch;
#X obj 124 278 bng 18 250 50 0 empty empty empty 17 7 0 10 -262144
-1 -1;
#X obj 144 578 s \$0-phreset;
#X text 808 532 Modulator 1;
#X obj 570 452 fmvoice, f 38;
#X floatatom 432 324 2 0 3 0 - - -;
#X obj 710 384 vsl 15 60 0 100 0 0 empty sliderdefault empty 0 -9 0
10 -262144 -1 -1 5900 1;
#X obj 766 384 vsl 15 60 0 100 0 0 empty sliderdefault empty 0 -9 0
10 -262144 -1 -1 0 1;
#X obj 570 392 r \$0-pitch;
#X obj 795 426 r \$0-phreset;
#X text 512 452 Carrier;
#X text 808 382 Modulator 2;
#X obj 900 408 s~ chanmod2;
#X obj 900 558 s~ chanmod1;
#X text 648 162 Modulator 3;
#X obj 740 188 s~ chanmod3;
#X obj 852 64 r~ chanmod4;
#X obj 1012 254 r~ chanmod3;
#X obj 1068 284 r~ chanmod4;
#X obj 1080 98 wavegen;
#X obj 1173 48 r \$0-phreset;
#X obj 1080 48 r \$0-pitch;
#X text 988 98 Modulator 4;
#X obj 1080 228 s~ chanmod4;
#X obj 162 294 hsl 100 20 0 100 0 0 mm mmdef empty -2 -8 0 10 -262144
-1 -1 0 1;
#N canvas 0 50 450 300 modchannel 0;
#X obj 41 147 r~;
#X obj 41 173 outlet~;
#X text 44 19 1;
#X obj 41 37 hradio 15 1 0 4 empty radiodefault empty 0 -8 0 10 -262144
-1 -1 0;
#X text 89 19 4;
#X text 74 19 3;
#X text 59 19 2;
#X obj 41 65 route 0 1 2 3;
#X msg 41 99 set chanmod1;
#X msg 131 99 set chanmod2;
#X msg 221 99 set chanmod3;
#X msg 311 99 set chanmod4;
#X obj 152 20 inlet;
#X obj 152 46 ctrlbound 0 3;
#X connect 0 0 1 0;
#X connect 3 0 7 0;
#X connect 7 0 8 0;
#X connect 7 1 9 0;
#X connect 7 2 10 0;
#X connect 7 3 11 0;
#X connect 8 0 0 0;
#X connect 9 0 0 0;
#X connect 10 0 0 0;
#X connect 11 0 0 0;
#X connect 12 0 13 0;
#X connect 13 0 3 0;
#X coords 0 -1 1 1 62 33 2 40 20;
#X restore 683 303 pd modchannel;
#N canvas 358 95 450 300 preset 0;
#X obj 21 21 loadbang;
#X obj 21 86 s sliderdefault;
#X msg 128 60 1, f 1;
#X obj 128 86 s pmultidefault;
#X obj 235 86 s radiodefault;
#X msg 235 60 0, f 1;
#X msg 21 119 100;
#X obj 21 146 s slidermaster;
#X obj 128 146 s slidercarrier;
#X obj 128 119 r mm;
#X msg 21 59 0;
#X obj 335 86 s mmdef;
#X msg 335 60 100;
#X connect 0 0 10 0;
#X connect 0 0 2 0;
#X connect 0 0 5 0;
#X connect 0 0 6 0;
#X connect 0 0 12 0;
#X connect 2 0 3 0;
#X connect 5 0 4 0;
#X connect 6 0 7 0;
#X connect 6 0 8 0;
#X connect 9 0 8 0;
#X connect 10 0 1 0;
#X connect 12 0 11 0;
#X restore 34 19 pd preset;
#N canvas 723 82 450 300 modchannel 0;
#X obj 41 147 r~;
#X obj 41 173 outlet~;
#X obj 41 37 hradio 15 1 0 3 empty radiodefault empty 0 -8 0 10 -262144
-1 -1 0;
#X obj 41 65 route 0 1 2;
#X text 44 19 2;
#X text 59 19 3;
#X text 74 19 4;
#X msg 41 99 set chanmod2;
#X msg 131 99 set chanmod3;
#X msg 221 99 set chanmod4;
#X obj 152 20 inlet;
#X obj 152 46 ctrlbound 0 2;
#X connect 0 0 1 0;
#X connect 2 0 3 0;
#X connect 3 0 7 0;
#X connect 3 1 8 0;
#X connect 3 2 9 0;
#X connect 7 0 0 0;
#X connect 8 0 0 0;
#X connect 9 0 0 0;
#X connect 10 0 11 0;
#X connect 11 0 2 0;
#X coords 0 -1 1 1 47 33 2 40 20;
#X restore 1011 422 pd modchannel;
#N canvas 503 101 450 300 modchannel 0;
#X obj 41 147 r~;
#X obj 41 173 outlet~;
#X text 44 19 1;
#X obj 41 37 hradio 15 1 0 4 empty radiodefault empty 0 -8 0 10 -262144
-1 -1 0;
#X text 89 19 4;
#X text 74 19 3;
#X text 59 19 2;
#X obj 41 65 route 0 1 2 3;
#X msg 41 99 set chanmod1;
#X msg 131 99 set chanmod2;
#X msg 221 99 set chanmod3;
#X msg 311 99 set chanmod4;
#X obj 152 20 inlet;
#X obj 152 46 ctrlbound 0 3;
#X connect 0 0 1 0;
#X connect 3 0 7 0;
#X connect 7 0 8 0;
#X connect 7 1 9 0;
#X connect 7 2 10 0;
#X connect 7 3 11 0;
#X connect 8 0 0 0;
#X connect 9 0 0 0;
#X connect 10 0 0 0;
#X connect 11 0 0 0;
#X connect 12 0 13 0;
#X connect 13 0 3 0;
#X coords 0 -1 1 1 62 33 2 40 20;
#X restore 737 343 pd modchannel;
#N canvas 0 50 450 300 modchannel 0;
#X obj 41 147 r~;
#X obj 41 173 outlet~;
#X obj 41 37 hradio 15 1 0 3 empty radiodefault empty 0 -8 0 10 -262144
-1 -1 0;
#X obj 41 65 route 0 1 2;
#X text 44 19 2;
#X text 59 19 3;
#X text 74 19 4;
#X msg 41 99 set chanmod2;
#X msg 131 99 set chanmod3;
#X msg 221 99 set chanmod4;
#X obj 152 20 inlet;
#X obj 152 46 ctrlbound 0 2;
#X connect 0 0 1 0;
#X connect 2 0 3 0;
#X connect 3 0 7 0;
#X connect 3 1 8 0;
#X connect 3 2 9 0;
#X connect 7 0 0 0;
#X connect 8 0 0 0;
#X connect 9 0 0 0;
#X connect 10 0 11 0;
#X connect 11 0 2 0;
#X coords 0 -1 1 1 47 33 2 40 20;
#X restore 1067 422 pd modchannel;
#X floatatom 432 286 3 0 32 0 - pmultidefault -;
#X obj 1040 464 vsl 15 60 0 100 0 0 empty sliderdefault empty 0 -9
0 10 -262144 -1 -1 0 1;
#X obj 1096 464 vsl 15 60 0 100 0 0 empty sliderdefault empty 0 -9
0 10 -262144 -1 -1 0 1;
#X obj 900 472 r \$0-pitch;
#X obj 1125 506 r \$0-phreset;
#X obj 1040 314 vsl 15 60 0 100 0 0 empty sliderdefault empty 0 -9
0 10 -262144 -1 -1 0 1;
#X obj 1096 314 vsl 15 60 0 100 0 0 empty sliderdefault empty 0 -9
0 10 -262144 -1 -1 0 1;
#X obj 900 322 r \$0-pitch;
#X obj 1125 356 r \$0-phreset;
#X obj 824 94 vsl 15 60 0 100 0 0 empty slidermaster empty 0 -9 0 10
-262144 -1 -1 5900 1;
#X obj 880 94 vsl 15 60 0 100 0 0 empty sliderdefault empty 0 -9 0
10 -262144 -1 -1 0 1;
#X obj 740 102 r \$0-pitch;
#X obj 965 136 r \$0-phreset;
#X obj 900 532 fmvoice, f 38;
#X obj 900 382 fmvoice, f 38;
#X obj 740 162 fmvoice, f 38;
#X obj 162 254 hsl 100 20 0 100 0 0 ps empty empty -2 -8 0 10 -262144
-1 -1 9500 1;
#X obj 105 122 / 100;
#X obj 105 148 expr pow(2 \, (-1 * $f1));
#X obj 105 97 expr ($f1 / 12) * 4;
#X obj 34 122 *;
#X obj 62 122 t b f;
#X obj 570 479 outlet~;
#X obj 34 72 inlet;
#X text 32 53 Pitch (Hz);
#X obj 254 72 inlet;
#X text 252 53 Reset phase;
#X obj 484 72 inlet;
#X text 482 53 Master modulation;
#X obj 354 72 inlet;
#X text 352 53 Pitch slide (-);
#X obj 105 72 r ps;
#X floatatom 34 148 8 0 0 0 - - -;
#X floatatom 105 254 5 0 0 0 - - -;
#X text 37 254 MIDI;
#X msg 105 200 set \$1;
#X obj 105 175 ftom;
#X obj 107 578 mtof;
#X text 37 277 Reset phase;
#X text 156 235 Pitch slide (-);
#X text 157 275 Master modulation;
#X text 288 235 Carrier;
#X obj 294 266 hsl 50 15 0 100 0 0 empty slidercarrier empty -2 -8
0 10 -262144 -1 -1 0 1;
#X text 288 248 Total mod;
#X obj 294 299 hsl 50 15 0 100 0 0 empty empty empty -2 -8 0 10 -262144
-1 -1 4900 1;
#X obj 294 329 hsl 50 15 0 100 0 0 empty empty empty -2 -8 0 10 -262144
-1 -1 0 1;
#X text 355 281 1;
#X obj 352 299 hradio 15 1 0 4 empty radiodefault empty 0 -8 0 10 -262144
-1 -1 0;
#X text 400 281 4;
#X text 385 281 3;
#X text 370 281 2;
#X text 355 311 1;
#X obj 352 329 hradio 15 1 0 4 empty radiodefault empty 0 -8 0 10 -262144
-1 -1 0;
#X text 400 311 4;
#X text 385 311 3;
#X text 370 311 2;
#X text 351 265 Mod source;
#X text 429 265 Freq multi;
#X text 430 306 Wave shape;
#X floatatom 181 438 2 0 3 0 - - -;
#X floatatom 181 400 3 0 32 0 - pmultidefault -;
#X obj 43 383 hsl 50 15 0 100 0 0 empty slidermaster empty -2 -8 0
10 -262144 -1 -1 4900 1;
#X text 37 365 Total mod;
#X obj 43 413 hsl 50 15 0 100 0 0 empty empty empty -2 -8 0 10 -262144
-1 -1 0 1;
#X obj 43 443 hsl 50 15 0 100 0 0 empty empty empty -2 -8 0 10 -262144
-1 -1 0 1;
#X obj 108 413 hradio 15 1 0 3 empty radiodefault empty 0 -8 0 10 -262144
-1 -1 0;
#X obj 108 443 hradio 15 1 0 3 empty radiodefault empty 0 -8 0 10 -262144
-1 -1 0;
#X text 100 382 Mod source;
#X text 178 382 Freq multi;
#X text 179 420 Wave shape;
#X text 37 351 Modulator 1;
#X text 288 281 Mod A;
#X text 288 311 Mod B;
#X text 37 395 Mod A;
#X text 37 425 Mod B;
#X text 111 395 2;
#X text 126 395 3;
#X text 141 395 4;
#X text 111 425 2;
#X text 126 425 3;
#X text 141 425 4;
#X floatatom 355 438 2 0 3 0 - - -;
#X floatatom 355 400 3 0 32 0 - pmultidefault -;
#X obj 294 383 hsl 50 15 0 100 0 0 empty slidermaster empty -2 -8 0
10 -262144 -1 -1 4900 1;
#X text 288 365 Total mod;
#X obj 294 413 hsl 50 15 0 100 0 0 empty empty empty -2 -8 0 10 -262144
-1 -1 0 1;
#X obj 294 443 hsl 50 15 0 100 0 0 empty empty empty -2 -8 0 10 -262144
-1 -1 0 1;
#X text 352 382 Freq multi;
#X text 353 420 Wave shape;
#X text 288 351 Modulator 2;
#X text 288 395 Mod 3;
#X text 288 425 Mod 4;
#X floatatom 104 541 2 0 3 0 - - -;
#X floatatom 104 503 3 0 32 0 - pmultidefault -;
#X obj 43 503 hsl 50 15 0 100 0 0 empty empty empty -2 -8 0 10 -262144
-1 -1 0 1;
#X text 101 485 Freq multi;
#X text 102 523 Wave shape;
#X text 37 485 Mod 4;
#X text 37 471 Modulator 3;
#X floatatom 290 541 2 0 3 0 - - -;
#X floatatom 290 503 3 0 32 0 - pmultidefault -;
#X text 287 485 Freq multi;
#X text 288 523 Wave shape;
#X text 288 471 Modulator 4;
#X obj 1080 73 *;
#X obj 1107 73 t b f;
#X msg 815 64 100;
#X obj 570 416 *;
#X obj 597 416 t b f;
#X obj 900 496 *;
#X obj 927 496 t b f;
#X obj 900 346 *;
#X obj 927 346 t b f;
#X obj 740 126 *;
#X obj 767 126 t b f;
#X connect 0 0 51 0;
#X connect 2 0 3 0;
#X connect 5 0 53 0;
#X connect 6 0 5 1;
#X connect 7 0 5 4;
#X connect 8 0 5 6;
#X connect 9 0 138 0;
#X connect 10 0 5 7;
#X connect 17 0 46 3;
#X connect 18 0 45 3;
#X connect 19 0 45 5;
#X connect 20 0 24 0;
#X connect 21 0 20 2;
#X connect 22 0 135 0;
#X connect 26 0 5 3;
#X connect 28 0 44 3;
#X connect 29 0 5 5;
#X connect 30 0 44 5;
#X connect 31 0 139 0;
#X connect 32 0 44 4;
#X connect 33 0 44 6;
#X connect 34 0 140 0;
#X connect 35 0 44 7;
#X connect 36 0 45 4;
#X connect 37 0 45 6;
#X connect 38 0 142 0;
#X connect 39 0 45 7;
#X connect 41 0 46 4;
#X connect 41 0 137 0;
#X connect 42 0 144 0;
#X connect 43 0 46 7;
#X connect 44 0 14 0;
#X connect 45 0 13 0;
#X connect 46 0 16 0;
#X connect 48 0 49 0;
#X connect 49 0 52 0;
#X connect 50 0 48 0;
#X connect 51 0 63 0;
#X connect 52 0 51 0;
#X connect 52 1 51 1;
#X connect 54 0 0 0;
#X connect 54 0 67 0;
#X connect 56 0 2 0;
#X connect 58 0 25 0;
#X connect 60 0 47 0;
#X connect 62 0 50 0;
#X connect 63 0 1 0;
#X connect 64 0 68 0;
#X connect 66 0 64 0;
#X connect 67 0 66 0;
#X connect 68 0 0 0;
#X connect 73 0 5 2;
#X connect 75 0 7 0;
#X connect 76 0 8 0;
#X connect 78 0 26 0;
#X connect 83 0 29 0;
#X connect 90 0 44 1;
#X connect 91 0 141 0;
#X connect 92 0 44 2;
#X connect 94 0 32 0;
#X connect 95 0 33 0;
#X connect 96 0 28 0;
#X connect 97 0 30 0;
#X connect 112 0 45 1;
#X connect 113 0 143 0;
#X connect 114 0 45 2;
#X connect 116 0 36 0;
#X connect 117 0 37 0;
#X connect 123 0 46 1;
#X connect 124 0 145 0;
#X connect 125 0 41 0;
#X connect 130 0 20 1;
#X connect 131 0 136 0;
#X connect 135 0 20 0;
#X connect 136 0 135 0;
#X connect 136 1 135 1;
#X connect 137 0 46 2;
#X connect 138 0 5 0;
#X connect 139 0 138 0;
#X connect 139 1 138 1;
#X connect 140 0 44 0;
#X connect 141 0 140 0;
#X connect 141 1 140 1;
#X connect 142 0 45 0;
#X connect 143 0 142 0;
#X connect 143 1 142 1;
#X connect 144 0 46 0;
#X connect 145 0 144 0;
#X connect 145 1 144 1;
#X coords 0 -1 1 1 480 340 1 30 230;
