#N canvas -8 -8 1280 637 12;
#X text 106 74 0 ~ 3 for wave shape;
#X obj 150 97 inlet;
#X obj 57 46 inlet;
#X obj 383 46 inlet~;
#X obj 57 433 outlet~;
#X text 108 433 modulated signal out;
#X obj 503 46 inlet;
#X obj 503 74 ctrlbound 0 100;
#X obj 503 100 / 100;
#X obj 57 79 sig~;
#X text 410 203 final pitch \, in signal form, f 14;
#X obj 383 153 expr~ pow(2 \, $v1);
#X obj 383 74 *~;
#X obj 383 179 *~;
#X text 26 23 central pitch (hz);
#X text 358 23 modulator 1 (~);
#X text 473 23 modulator 1 mix (%);
#X text 188 23 master modulation mix (%);
#X obj 383 210 *~;
#X obj 243 74 ctrlbound 0 100;
#X obj 243 100 / 100;
#X obj 243 46 inlet;
#X obj 383 252 stoc;
#X text 415 244 translate pitch signal into continuous feed of control
values -> send into sound generator as pitch in hz;
#X obj 383 100 *~;
#X obj 633 46 inlet~;
#X obj 753 46 inlet;
#X obj 753 74 ctrlbound 0 100;
#X obj 753 100 / 100;
#X obj 633 153 expr~ pow(2 \, $v1);
#X obj 633 74 *~;
#X obj 633 100 *~;
#X text 608 23 modulator 2 (~);
#X text 723 23 modulator 2 mix (%);
#X obj 57 293 wavegen;
#X obj 881 46 inlet;
#X text 863 23 phase reset;
#X obj 881 266 bng 15 250 50 0 empty empty empty 17 7 0 10 -262144
-1 -1;
#X obj 383 126 *~ 2;
#X obj 633 126 *~ 2;
#X connect 1 0 34 1;
#X connect 2 0 9 0;
#X connect 3 0 12 0;
#X connect 6 0 7 0;
#X connect 7 0 8 0;
#X connect 8 0 12 1;
#X connect 9 0 18 0;
#X connect 11 0 13 0;
#X connect 12 0 24 0;
#X connect 13 0 18 1;
#X connect 18 0 22 0;
#X connect 19 0 20 0;
#X connect 20 0 24 1;
#X connect 20 0 31 1;
#X connect 21 0 19 0;
#X connect 22 0 34 0;
#X connect 24 0 38 0;
#X connect 25 0 30 0;
#X connect 26 0 27 0;
#X connect 27 0 28 0;
#X connect 28 0 30 1;
#X connect 29 0 13 1;
#X connect 30 0 31 0;
#X connect 31 0 39 0;
#X connect 34 0 4 0;
#X connect 35 0 37 0;
#X connect 37 0 34 2;
#X connect 38 0 11 0;
#X connect 39 0 29 0;
#X coords 0 637 1 636 500 60 0;
